<?xml version="1.0" encoding="UTF-8" standalone="no"?><!-- Generator: Gravit.io --><svg xmlns="http://www.w3.org/2000/svg" xmlns:xlink="http://www.w3.org/1999/xlink" style="isolation:isolate" viewBox="0 0 18 18" width="18pt" height="18pt"><circle vector-effect="non-scaling-stroke" cx="9" cy="9" r="9" fill="rgb(187,244,81)"/><path d=" M 6.676 7.514 C 6.888 7.726 6.888 8.069 6.676 8.28 C 6.465 8.492 6.122 8.492 5.911 8.28 C 5.699 8.068 5.699 7.725 5.911 7.514 C 6.122 7.302 6.465 7.302 6.676 7.514 Z  M 14.179 10.81 L 13.873 11.116 C 13.859 11.784 13.6 12.447 13.096 12.957 L 11.381 14.695 C 10.87 15.212 10.189 15.498 9.462 15.5 L 9.452 15.5 C 8.729 15.5 8.05 15.218 7.538 14.707 L 3.521 10.724 C 3.169 10.373 2.999 9.889 3.053 9.396 L 3.468 5.65 C 3.495 5.403 3.687 5.206 3.932 5.172 L 7.664 4.662 C 8.169 4.595 8.677 4.767 9.033 5.123 L 13.082 9.138 C 13.292 9.347 13.46 9.584 13.586 9.835 C 14.026 9.204 13.964 8.322 13.401 7.758 L 9.289 3.747 C 9.165 3.623 8.994 3.566 8.828 3.589 L 5.097 4.099 C 4.8 4.139 4.527 3.932 4.487 3.636 C 4.447 3.34 4.654 3.067 4.95 3.026 L 8.682 2.516 C 9.181 2.445 9.694 2.619 10.051 2.977 L 14.162 6.988 C 15.216 8.041 15.222 9.754 14.179 10.81 L 14.179 10.81 Z  M 12.317 9.905 L 8.268 5.891 C 8.148 5.77 7.978 5.714 7.81 5.735 L 4.497 6.189 L 4.13 9.514 C 4.112 9.678 4.168 9.84 4.285 9.956 L 8.302 13.939 C 8.61 14.248 9.018 14.416 9.452 14.416 L 9.457 14.416 C 9.894 14.415 10.303 14.243 10.609 13.932 L 12.324 12.195 C 12.95 11.561 12.947 10.534 12.317 9.904 L 12.317 9.905 Z " fill="rgb(0,0,0)"/></svg>