<svg xmlns="http://www.w3.org/2000/svg" xmlns:xlink="http://www.w3.org/1999/xlink" style="isolation:isolate" viewBox="289.48 284.105 100 102.834" width="100pt" height="102.834pt"><path d=" M 289.48 284.105 L 289.48 386.939 L 353.347 386.939 C 373.303 386.939 389.48 370.762 389.48 350.806 L 389.48 284.105 L 289.48 284.105 Z " fill="rgb(23,23,23)"/><path d=" M 303.422 321.833 L 303.422 327.259 C 303.422 329.082 304.181 329.924 305.327 329.924 C 306.555 329.924 307.288 329.082 307.288 327.259 L 307.288 321.833 L 308.986 321.833 L 308.986 327.149 C 308.986 330.022 307.509 331.291 305.272 331.291 C 303.036 331.291 301.725 330.09 301.725 327.163 L 301.725 321.833 L 303.423 321.833 L 303.422 321.833 Z " fill="rgb(255,255,255)"/><path d=" M 310.934 326.417 C 310.934 325.644 310.92 324.996 310.88 324.415 L 312.37 324.415 L 312.453 325.424 L 312.495 325.424 C 312.785 324.899 313.517 324.263 314.636 324.263 C 315.81 324.263 317.025 325.023 317.025 327.148 L 317.025 331.139 L 315.326 331.139 L 315.326 327.342 C 315.326 326.376 314.967 325.645 314.042 325.645 C 313.365 325.645 312.896 326.129 312.717 326.638 C 312.663 326.791 312.648 326.997 312.648 327.19 L 312.648 331.139 L 310.935 331.139 L 310.935 326.417 L 310.935 326.417 L 310.934 326.417 Z " fill="rgb(255,255,255)"/><path d=" M 318.899 331.139 L 318.899 324.415 L 320.612 324.415 L 320.612 331.139 L 318.899 331.139 Z  M 320.708 322.537 C 320.708 323.048 320.336 323.449 319.742 323.449 C 319.148 323.449 318.803 323.048 318.803 322.537 C 318.803 322.026 319.19 321.612 319.755 321.612 C 320.321 321.612 320.694 322.013 320.708 322.537 Z " fill="rgb(255,255,255)"/><path d=" M 323.581 324.415 L 324.672 327.826 C 324.865 328.42 325.004 328.958 325.127 329.511 L 325.17 329.511 C 325.293 328.96 325.445 328.434 325.625 327.826 L 326.687 324.415 L 328.482 324.415 L 325.914 331.139 L 324.244 331.139 L 321.745 324.415 L 323.581 324.415 L 323.581 324.415 Z " fill="rgb(255,255,255)"/><path d=" M 333.563 327.067 C 333.577 326.446 333.301 325.424 332.167 325.424 C 331.118 325.424 330.677 326.376 330.607 327.067 L 333.562 327.067 L 333.563 327.067 Z  M 330.609 328.254 C 330.65 329.469 331.602 329.994 332.68 329.994 C 333.467 329.994 334.034 329.884 334.545 329.689 L 334.793 330.863 C 334.213 331.098 333.413 331.278 332.447 331.278 C 330.264 331.278 328.98 329.938 328.98 327.882 C 328.98 326.018 330.112 324.265 332.266 324.265 C 334.419 324.265 335.166 326.06 335.166 327.537 C 335.166 327.855 335.138 328.104 335.111 328.256 L 330.611 328.256 L 330.609 328.254 Z " fill="rgb(255,255,255)"/><path d=" M 336.6 326.583 C 336.6 325.671 336.587 325.023 336.544 324.415 L 338.022 324.415 L 338.077 325.699 L 338.132 325.699 C 338.463 324.747 339.25 324.263 339.969 324.263 C 340.135 324.263 340.231 324.277 340.37 324.304 L 340.37 325.906 C 340.231 325.879 340.081 325.85 339.873 325.85 C 339.057 325.85 338.505 326.375 338.353 327.134 C 338.326 327.286 338.299 327.466 338.299 327.659 L 338.299 331.139 L 336.6 331.139 L 336.6 326.583 L 336.6 326.583 Z " fill="rgb(255,255,255)"/><path d=" M 341.502 329.579 C 341.889 329.814 342.62 330.063 343.228 330.063 C 343.974 330.063 344.305 329.76 344.305 329.317 C 344.305 328.874 344.03 328.627 343.201 328.337 C 341.889 327.882 341.336 327.163 341.35 326.376 C 341.35 325.188 342.331 324.263 343.891 324.263 C 344.637 324.263 345.287 324.456 345.672 324.664 L 345.341 325.865 C 345.052 325.699 344.513 325.478 343.92 325.478 C 343.326 325.478 342.981 325.769 342.981 326.182 C 342.981 326.594 343.297 326.816 344.153 327.121 C 345.368 327.562 345.935 328.183 345.948 329.178 C 345.948 330.393 344.996 331.276 343.214 331.276 C 342.399 331.276 341.668 331.083 341.17 330.806 L 341.502 329.577 L 341.502 329.579 Z " fill="rgb(255,255,255)"/><path d=" M 347.412 331.139 L 347.412 324.415 L 349.124 324.415 L 349.124 331.139 L 347.412 331.139 Z  M 349.22 322.537 C 349.22 323.048 348.848 323.449 348.254 323.449 C 347.66 323.449 347.315 323.048 347.315 322.537 C 347.315 322.026 347.703 321.612 348.268 321.612 C 348.833 321.612 349.207 322.013 349.22 322.537 Z " fill="rgb(255,255,255)"/><path d=" M 352.963 322.497 L 352.963 324.415 L 354.579 324.415 L 354.579 325.686 L 352.963 325.686 L 352.963 328.654 C 352.963 329.469 353.185 329.897 353.833 329.897 C 354.124 329.897 354.344 329.855 354.496 329.814 L 354.523 331.112 C 354.274 331.208 353.833 331.278 353.295 331.278 C 352.674 331.278 352.149 331.071 351.831 330.726 C 351.472 330.339 351.307 329.731 351.307 328.848 L 351.307 325.686 L 350.34 325.686 L 350.34 324.415 L 351.307 324.415 L 351.307 322.896 L 352.963 322.495 L 352.963 322.495 L 352.963 322.497 Z " fill="rgb(255,255,255)"/><path d=" M 357.091 324.415 L 358.306 328.019 C 358.445 328.434 358.582 328.945 358.678 329.33 L 358.721 329.33 C 358.831 328.945 358.956 328.447 359.079 328.006 L 360.128 324.415 L 361.951 324.415 L 360.265 328.999 C 359.34 331.511 358.719 332.63 357.919 333.32 C 357.255 333.914 356.565 334.135 356.137 334.19 L 355.75 332.753 C 356.039 332.684 356.398 332.531 356.744 332.283 C 357.063 332.076 357.435 331.675 357.67 331.22 C 357.739 331.097 357.78 330.999 357.78 330.917 C 357.78 330.848 357.766 330.752 357.683 330.586 L 355.225 324.414 L 357.09 324.414 L 357.091 324.415 Z " fill="rgb(255,255,255)"/><path d=" M 367.253 327.784 C 367.253 329.082 367.888 330.061 368.925 330.061 C 369.891 330.061 370.568 329.109 370.568 327.755 C 370.568 326.706 370.099 325.505 368.938 325.505 C 367.778 325.505 367.253 326.666 367.253 327.784 Z  M 372.32 327.715 C 372.32 330.186 370.581 331.291 368.869 331.291 C 366.964 331.291 365.5 329.978 365.5 327.826 C 365.5 325.674 366.95 324.265 368.981 324.265 C 371.011 324.265 372.322 325.672 372.322 327.716 L 372.32 327.715 Z " fill="rgb(255,255,255)"/><path d=" M 373.977 331.139 L 373.977 325.684 L 373.065 325.684 L 373.065 324.414 L 373.977 324.414 L 373.977 324.123 C 373.977 323.253 374.212 322.383 374.792 321.83 C 375.29 321.361 375.967 321.182 376.545 321.182 C 377 321.182 377.361 321.251 377.636 321.348 L 377.513 322.659 C 377.334 322.59 377.098 322.534 376.794 322.534 C 375.951 322.534 375.662 323.238 375.662 324.067 L 375.662 324.412 L 377.139 324.412 L 377.139 325.683 L 375.675 325.683 L 375.675 331.137 L 373.977 331.137 L 373.977 331.137 L 373.977 331.139 Z " fill="rgb(255,255,255)"/><path d=" M 301.696 343.673 C 302.247 343.989 303.076 344.267 303.946 344.267 C 305.037 344.267 305.645 343.756 305.645 342.996 C 305.645 342.292 305.174 341.878 303.988 341.45 C 302.455 340.898 301.476 340.083 301.476 338.743 C 301.476 337.223 302.746 336.064 304.762 336.064 C 305.77 336.064 306.514 336.286 306.998 336.533 L 306.584 337.9 C 306.252 337.721 305.604 337.458 304.733 337.458 C 303.657 337.458 303.186 338.039 303.186 338.577 C 303.186 339.296 303.724 339.626 304.968 340.11 C 306.584 340.717 307.37 341.533 307.37 342.871 C 307.37 344.363 306.239 345.659 303.836 345.659 C 302.856 345.659 301.834 345.383 301.324 345.079 L 301.696 343.671 L 301.696 343.671 L 301.696 343.673 Z " fill="rgb(255,255,255)"/><path d=" M 310.311 342.167 C 310.311 343.465 310.946 344.446 311.983 344.446 C 312.949 344.446 313.626 343.494 313.626 342.14 C 313.626 341.091 313.157 339.89 311.996 339.89 C 310.836 339.89 310.311 341.049 310.311 342.167 L 310.311 342.167 L 310.311 342.167 Z  M 315.378 342.098 C 315.378 344.568 313.639 345.674 311.927 345.674 C 310.022 345.674 308.558 344.363 308.558 342.209 C 308.558 340.056 310.008 338.646 312.039 338.646 C 314.069 338.646 315.38 340.054 315.38 342.098 L 315.378 342.098 Z " fill="rgb(255,255,255)"/><path d=" M 322.862 343.505 C 322.862 344.306 322.889 344.969 322.916 345.522 L 321.425 345.522 L 321.342 344.5 L 321.315 344.5 C 321.026 344.984 320.363 345.674 319.162 345.674 C 317.96 345.674 316.815 344.944 316.815 342.747 L 316.815 338.798 L 318.514 338.798 L 318.514 342.456 C 318.514 343.575 318.872 344.292 319.769 344.292 C 320.446 344.292 320.887 343.808 321.067 343.382 C 321.123 343.23 321.163 343.05 321.163 342.857 L 321.163 338.798 L 322.862 338.798 L 322.862 343.505 L 322.862 343.505 Z " fill="rgb(255,255,255)"/><path d=" M 326.714 336.878 L 326.714 338.798 L 328.33 338.798 L 328.33 340.067 L 326.714 340.067 L 326.714 343.037 C 326.714 343.852 326.934 344.279 327.584 344.279 C 327.873 344.279 328.095 344.238 328.247 344.196 L 328.274 345.493 C 328.026 345.59 327.584 345.659 327.046 345.659 C 326.425 345.659 325.901 345.453 325.582 345.108 C 325.224 344.722 325.058 344.113 325.058 343.23 L 325.058 340.067 L 324.092 340.067 L 324.092 338.798 L 325.058 338.798 L 325.058 337.279 L 326.714 336.878 L 326.714 336.878 L 326.714 336.878 Z " fill="rgb(255,255,255)"/><path d=" M 329.684 335.719 L 331.396 335.719 L 331.396 339.724 L 331.423 339.724 C 331.629 339.406 331.907 339.145 332.266 338.951 C 332.597 338.758 332.998 338.646 333.426 338.646 C 334.573 338.646 335.775 339.406 335.775 341.56 L 335.775 345.522 L 334.076 345.522 L 334.076 341.753 C 334.076 340.773 333.717 340.04 332.778 340.04 C 332.115 340.04 331.646 340.482 331.467 340.993 C 331.413 341.132 331.398 341.311 331.398 341.504 L 331.398 345.522 L 329.685 345.522 L 329.685 335.719 L 329.685 335.719 L 329.684 335.719 Z " fill="rgb(255,255,255)"/><path d=" M 341.654 345.522 L 339.375 336.217 L 341.184 336.217 L 342.067 340.441 C 342.302 341.573 342.522 342.761 342.674 343.686 L 342.701 343.686 C 342.854 342.707 343.116 341.602 343.378 340.428 L 344.387 336.217 L 346.168 336.217 L 347.094 340.497 C 347.329 341.602 347.522 342.637 347.66 343.646 L 347.688 343.646 C 347.853 342.624 348.075 341.561 348.324 340.428 L 349.29 336.217 L 351.016 336.217 L 348.517 345.522 L 346.694 345.522 L 345.728 341.145 C 345.493 340.083 345.329 339.199 345.217 338.191 L 345.189 338.191 C 345.023 339.186 344.843 340.083 344.568 341.145 L 343.49 345.522 L 341.654 345.522 L 341.654 345.522 Z " fill="rgb(255,255,255)"/><path d=" M 355.185 342.236 C 353.983 342.209 352.838 342.472 352.838 343.492 C 352.838 344.155 353.266 344.46 353.804 344.46 C 354.481 344.46 354.978 344.018 355.129 343.534 C 355.171 343.409 355.185 343.272 355.185 343.162 L 355.185 342.236 L 355.185 342.236 Z  M 355.404 345.522 L 355.294 344.776 L 355.252 344.776 C 354.838 345.301 354.134 345.674 353.264 345.674 C 351.911 345.674 351.151 344.695 351.151 343.673 C 351.151 341.974 352.657 341.118 355.141 341.132 L 355.141 341.022 C 355.141 340.58 354.961 339.849 353.773 339.849 C 353.11 339.849 352.42 340.056 351.965 340.347 L 351.633 339.242 C 352.131 338.939 353 338.648 354.063 338.648 C 356.217 338.648 356.838 340.015 356.838 341.478 L 356.838 343.908 C 356.838 344.515 356.866 345.109 356.934 345.524 L 355.401 345.524 L 355.404 345.522 Z " fill="rgb(255,255,255)"/><rect x="358.705" y="335.719" width="1.712" height="9.803" transform="matrix(1,0,0,1,0,0)" fill="rgb(255,255,255)"/><path d=" M 366.48 341.45 C 366.493 340.829 366.218 339.807 365.084 339.807 C 364.035 339.807 363.593 340.759 363.524 341.45 L 366.478 341.45 L 366.48 341.45 Z  M 363.526 342.637 C 363.566 343.852 364.521 344.377 365.597 344.377 C 366.383 344.377 366.95 344.267 367.461 344.074 L 367.71 345.248 C 367.13 345.483 366.329 345.661 365.363 345.661 C 363.181 345.661 361.896 344.323 361.896 342.265 C 361.896 340.401 363.028 338.648 365.182 338.648 C 367.336 338.648 368.082 340.443 368.082 341.92 C 368.082 342.238 368.055 342.487 368.026 342.637 L 363.526 342.637 L 363.526 342.637 L 363.526 342.637 Z " fill="rgb(255,255,255)"/><path d=" M 369.434 343.962 C 369.82 344.196 370.552 344.446 371.16 344.446 C 371.906 344.446 372.236 344.142 372.236 343.7 C 372.236 343.258 371.96 343.01 371.131 342.72 C 369.82 342.265 369.266 341.546 369.28 340.759 C 369.28 339.572 370.26 338.646 371.821 338.646 C 372.567 338.646 373.215 338.839 373.603 339.047 L 373.271 340.248 C 372.982 340.083 372.442 339.863 371.848 339.863 C 371.254 339.863 370.909 340.152 370.909 340.566 C 370.909 340.981 371.227 341.201 372.084 341.505 C 373.298 341.947 373.865 342.568 373.879 343.563 C 373.879 344.778 372.926 345.661 371.145 345.661 C 370.329 345.661 369.598 345.468 369.101 345.192 L 369.432 343.964 L 369.432 343.964 L 369.434 343.962 Z " fill="rgb(255,255,255)"/><path d=" M 303.565 355.056 C 303.787 355.126 304.049 355.139 304.396 355.139 C 305.668 355.139 306.443 354.501 306.443 353.423 C 306.443 352.346 305.724 351.845 304.548 351.845 C 304.078 351.845 303.745 351.887 303.565 351.928 L 303.565 355.056 L 303.565 355.056 L 303.565 355.056 Z  M 301.877 350.725 C 302.499 350.613 303.344 350.532 304.479 350.532 C 305.724 350.532 306.624 350.794 307.218 351.293 C 307.771 351.75 308.132 352.483 308.132 353.356 C 308.132 354.229 307.854 354.961 307.343 355.459 C 306.651 356.137 305.599 356.469 304.396 356.469 C 304.078 356.469 303.801 356.455 303.565 356.4 L 303.565 359.929 L 301.877 359.929 L 301.877 350.727 L 301.877 350.725 Z " fill="rgb(255,255,255)"/><path d=" M 309.377 355.361 C 309.377 354.447 309.364 353.782 309.323 353.188 L 310.79 353.188 L 310.859 354.461 L 310.902 354.461 C 311.233 353.52 312.023 353.034 312.756 353.034 C 312.922 353.034 313.018 353.048 313.157 353.077 L 313.157 354.669 C 313.005 354.64 312.852 354.626 312.644 354.626 C 311.841 354.626 311.274 355.139 311.121 355.914 C 311.094 356.066 311.079 356.246 311.079 356.427 L 311.079 359.929 L 309.377 359.929 L 309.377 355.362 L 309.377 355.362 L 309.377 355.361 Z " fill="rgb(255,255,255)"/><path d=" M 314.302 359.929 L 314.302 353.19 L 316.004 353.19 L 316.004 359.929 L 314.302 359.929 Z  M 316.116 351.307 C 316.116 351.806 315.742 352.221 315.147 352.221 C 314.551 352.221 314.206 351.806 314.206 351.307 C 314.206 350.781 314.593 350.38 315.16 350.38 C 315.727 350.38 316.101 350.781 316.116 351.307 Z " fill="rgb(255,255,255)"/><path d=" M 318.038 359.929 L 318.038 354.462 L 317.124 354.462 L 317.124 353.19 L 318.038 353.19 L 318.038 352.899 C 318.038 352.028 318.273 351.155 318.855 350.601 C 319.353 350.131 320.018 349.95 320.613 349.95 C 321.07 349.95 321.43 350.033 321.693 350.116 L 321.583 351.43 C 321.39 351.361 321.168 351.305 320.85 351.305 C 320.006 351.305 319.73 352.011 319.73 352.841 L 319.73 353.188 L 321.197 353.188 L 321.197 354.461 L 319.744 354.461 L 319.744 359.927 L 318.041 359.927 L 318.038 359.929 Z " fill="rgb(255,255,255)"/><path d=" M 323.339 353.188 L 324.544 356.801 C 324.682 357.215 324.835 357.728 324.931 358.102 L 324.973 358.102 C 325.07 357.728 325.195 357.217 325.334 356.787 L 326.386 353.188 L 328.198 353.188 L 326.51 357.784 C 325.582 360.301 324.96 361.423 324.171 362.115 C 323.493 362.695 322.801 362.917 322.386 362.973 L 321.999 361.546 C 322.29 361.477 322.635 361.325 322.982 361.076 C 323.314 360.868 323.687 360.467 323.923 360.01 C 323.992 359.885 324.019 359.789 324.019 359.706 C 324.019 359.636 324.006 359.54 323.936 359.374 L 321.459 353.188 L 323.342 353.188 L 323.342 353.188 L 323.339 353.188 Z " fill="rgb(255,255,255)"/><path d=" M 328.943 358.35 C 329.317 358.586 330.049 358.85 330.658 358.85 C 331.406 358.85 331.738 358.531 331.738 358.088 C 331.738 357.645 331.46 357.41 330.629 357.105 C 329.315 356.664 328.775 355.943 328.775 355.141 C 328.775 353.951 329.758 353.038 331.321 353.038 C 332.069 353.038 332.719 353.217 333.122 353.439 L 332.777 354.63 C 332.499 354.464 331.946 354.242 331.35 354.242 C 330.755 354.242 330.41 354.547 330.41 354.963 C 330.41 355.379 330.728 355.586 331.585 355.904 C 332.817 356.334 333.37 356.956 333.384 357.953 C 333.384 359.185 332.428 360.071 330.643 360.071 C 329.826 360.071 329.093 359.878 328.594 359.601 L 328.941 358.355 L 328.941 358.355 L 328.943 358.35 Z " fill="rgb(255,255,255)"/><path d=" M 339.182 355.887 C 339.182 355.721 339.169 355.569 339.128 355.43 C 338.947 354.807 338.463 354.337 337.744 354.337 C 336.788 354.337 336.083 355.168 336.083 356.538 C 336.083 357.687 336.665 358.614 337.731 358.614 C 338.367 358.614 338.92 358.2 339.115 357.575 C 339.17 357.41 339.184 357.174 339.184 356.982 L 339.184 355.889 L 339.182 355.887 Z  M 340.884 358.946 C 340.884 360.357 340.593 361.369 339.888 362.005 C 339.196 362.628 338.213 362.822 337.286 362.822 C 336.428 362.822 335.514 362.629 334.932 362.282 L 335.306 360.995 C 335.736 361.244 336.455 361.508 337.272 361.508 C 338.379 361.508 339.209 360.927 339.209 359.472 L 339.209 358.892 L 339.182 358.892 C 338.795 359.487 338.116 359.888 337.218 359.888 C 335.543 359.888 334.353 358.504 334.353 356.596 C 334.353 354.381 335.793 353.039 337.412 353.039 C 338.45 353.039 339.045 353.539 339.363 354.092 L 339.39 354.092 L 339.46 353.193 L 340.94 353.193 C 340.913 353.65 340.884 354.203 340.884 355.131 L 340.884 358.951 L 340.884 358.951 L 340.884 358.946 Z " fill="rgb(255,255,255)"/><path d=" M 344.04 356.565 C 344.04 357.866 344.689 358.85 345.715 358.85 C 346.684 358.85 347.363 357.907 347.363 356.538 C 347.363 355.486 346.892 354.268 345.73 354.268 C 344.568 354.268 344.041 355.444 344.041 356.565 L 344.04 356.565 Z  M 349.119 356.496 C 349.119 358.973 347.375 360.081 345.659 360.081 C 343.764 360.081 342.282 358.78 342.282 356.608 C 342.282 354.435 343.735 353.036 345.769 353.036 C 347.803 353.036 349.117 354.447 349.117 356.496 L 349.117 356.496 L 349.119 356.496 Z " fill="rgb(255,255,255)"/><rect x="350.515" y="350.102" width="1.702" height="9.827" transform="matrix(1,0,0,1,0,0)" fill="rgb(255,255,255)"/><path d=" M 303.579 373.148 C 303.814 373.19 304.174 373.19 304.52 373.19 C 306.734 373.204 308.049 371.972 308.049 369.605 C 308.062 367.556 306.873 366.367 304.741 366.367 C 304.201 366.367 303.828 366.409 303.579 366.465 L 303.579 373.15 L 303.579 373.15 L 303.579 373.148 Z  M 301.877 365.231 C 302.638 365.121 303.579 365.039 304.589 365.039 C 306.333 365.039 307.523 365.399 308.381 366.118 C 309.294 366.851 309.847 367.972 309.847 369.551 C 309.847 371.226 309.281 372.458 308.394 373.26 C 307.467 374.104 305.985 374.534 304.173 374.534 C 303.19 374.534 302.442 374.478 301.875 374.409 L 301.875 365.233 L 301.877 365.231 Z " fill="rgb(255,255,255)"/><path d=" M 315.424 370.353 C 315.438 369.73 315.162 368.707 314.027 368.707 C 312.974 368.707 312.533 369.663 312.463 370.353 L 315.424 370.353 Z  M 312.463 371.542 C 312.504 372.761 313.446 373.287 314.539 373.287 C 315.328 373.287 315.883 373.162 316.407 372.982 L 316.656 374.145 C 316.075 374.393 315.272 374.574 314.302 374.574 C 312.116 374.574 310.829 373.231 310.829 371.17 C 310.829 369.302 311.964 367.544 314.123 367.544 C 316.282 367.544 317.028 369.343 317.028 370.825 C 317.028 371.143 317.001 371.393 316.974 371.544 L 312.462 371.544 L 312.463 371.542 Z " fill="rgb(255,255,255)"/><path d=" M 328.015 374.173 C 327.614 374.366 326.728 374.588 325.593 374.588 C 322.632 374.588 320.831 372.734 320.831 369.883 C 320.831 366.81 322.977 364.956 325.828 364.956 C 326.948 364.956 327.738 365.191 328.083 365.37 L 327.723 366.727 C 327.279 366.534 326.657 366.367 325.895 366.367 C 323.999 366.367 322.628 367.558 322.628 369.8 C 322.628 371.862 323.819 373.163 325.88 373.163 C 326.559 373.163 327.278 373.025 327.735 372.832 L 328.012 374.175 L 328.015 374.173 Z " fill="rgb(255,255,255)"/><path d=" M 330.105 367.695 L 331.31 371.307 C 331.448 371.723 331.601 372.234 331.697 372.608 L 331.739 372.608 C 331.836 372.234 331.961 371.723 332.098 371.294 L 333.15 367.695 L 334.963 367.695 L 333.274 372.29 C 332.347 374.81 331.724 375.93 330.936 376.622 C 330.257 377.202 329.565 377.424 329.151 377.479 L 328.763 376.055 C 329.054 375.985 329.399 375.833 329.746 375.584 C 330.078 375.376 330.452 374.975 330.687 374.518 C 330.756 374.393 330.783 374.297 330.783 374.214 C 330.783 374.145 330.77 374.048 330.701 373.882 L 328.224 367.697 L 330.107 367.697 L 330.107 367.697 L 330.105 367.695 Z " fill="rgb(255,255,255)"/><path d=" M 335.944 369.702 C 335.944 368.927 335.917 368.277 335.888 367.695 L 337.341 367.695 L 337.424 368.691 L 337.465 368.691 C 337.783 368.165 338.392 367.543 339.541 367.543 C 340.427 367.543 341.119 368.04 341.409 368.788 L 341.438 368.788 C 341.673 368.414 341.95 368.137 342.255 367.944 C 342.642 367.681 343.072 367.543 343.639 367.543 C 344.745 367.543 345.881 368.304 345.881 370.463 L 345.881 374.434 L 344.219 374.434 L 344.219 370.712 C 344.219 369.59 343.832 368.927 343.014 368.927 C 342.432 368.927 342.004 369.341 341.823 369.827 C 341.767 369.979 341.74 370.201 341.74 370.394 L 341.74 374.434 L 340.081 374.434 L 340.081 370.531 C 340.081 369.59 339.707 368.925 338.918 368.925 C 338.282 368.925 337.852 369.422 337.687 369.879 C 337.632 370.059 337.604 370.253 337.604 370.448 L 337.604 374.432 L 335.944 374.432 L 335.944 369.698 L 335.944 369.702 Z " fill="rgb(255,255,255)"/><path d=" M 347.679 369.869 C 347.679 368.955 347.666 368.29 347.623 367.697 L 349.09 367.697 L 349.16 368.969 L 349.202 368.969 C 349.533 368.028 350.322 367.544 351.056 367.544 C 351.222 367.544 351.318 367.558 351.457 367.587 L 351.457 369.177 C 351.305 369.15 351.153 369.136 350.946 369.136 C 350.143 369.136 349.576 369.649 349.423 370.424 C 349.395 370.576 349.381 370.756 349.381 370.937 L 349.381 374.437 L 347.679 374.437 L 347.679 369.871 L 347.679 369.871 L 347.679 369.869 Z " fill="rgb(255,255,255)"/><path d=" M 358.638 372.415 C 358.638 373.217 358.667 373.882 358.694 374.436 L 357.213 374.436 L 357.13 373.426 L 357.088 373.426 C 356.797 373.896 356.134 374.588 354.915 374.588 C 353.697 374.588 352.577 373.855 352.577 371.654 L 352.577 367.695 L 354.279 367.695 L 354.279 371.363 C 354.279 372.485 354.64 373.204 355.538 373.204 C 356.23 373.204 356.673 372.734 356.839 372.29 C 356.909 372.151 356.937 371.959 356.937 371.764 L 356.937 367.695 L 358.639 367.695 L 358.639 372.414 L 358.639 372.414 L 358.638 372.415 Z " fill="rgb(255,255,255)"/></svg>